<?xml version="1.0" encoding="UTF-8" standalone="no"?>
<!DOCTYPE svg PUBLIC "-//W3C//DTD SVG 1.1//EN" "http://www.w3.org/Graphics/SVG/1.1/DTD/svg11.dtd">
<svg width="100%" height="100%" viewBox="0 0 1024 1024" version="1.1" xmlns="http://www.w3.org/2000/svg" xmlns:xlink="http://www.w3.org/1999/xlink" xml:space="preserve" xmlns:serif="http://www.serif.com/" style="fill-rule:evenodd;clip-rule:evenodd;stroke-linejoin:round;stroke-miterlimit:2;">
    <g transform="matrix(1.267943,0,0,1.26574,-137.71022,-135.278384)">
        <path d="M911.133,893.558C909.345,900.441 910.261,910.157 892.482,910.643C875.923,910.113 876.01,910.422 859.507,909.385C830.164,907.542 830.182,913.715 781.505,910.378C768.908,909.514 760.451,912.242 716.475,908.983C690.439,907.054 690.519,908.488 664.524,910.774C660.287,911.146 660.324,910.497 611.462,914.109C596.824,915.191 571.515,912.53 554.478,914.298C491.365,920.848 487.085,904.348 384.49,915.389C383.944,915.448 330.2,917.272 292.515,913.314C197.947,903.383 123.171,921.741 115.789,904.382C109.126,888.711 117.722,852.518 116.336,828.509C113.892,786.167 110.511,786.284 113.139,734.481C113.869,720.103 109.335,715.529 112.077,679.48C115.478,634.758 105.433,634.826 109.671,557.509C109.916,553.047 112.728,521.977 112.744,514.5C112.761,507.002 118.149,464.734 113.225,434.549C111.823,425.953 108.029,372.222 110.745,345.516C112.888,324.441 112.526,310.902 113.688,305.528C114.096,303.644 112.843,303.664 115.261,281.478C120.102,237.058 106.173,237.006 112.856,132.528C114,114.645 114.653,110.37 132.496,110.157C155.703,109.88 158.505,114.4 210.493,109.351C244.774,106.023 244.827,115.052 282.433,111.018C296.457,109.513 296.388,108.175 310.418,109.99C337.775,113.53 368.029,105.476 390.521,107.095C404.396,108.093 438.387,107.838 453.511,109.331C502.031,114.121 525.231,106.334 571.434,111.908C603.784,115.81 611.287,107.9 651.48,113.647C673.979,116.864 676.186,108.685 717.494,112.577C720.525,112.863 720.498,112.438 755.513,114.273C773.501,115.216 797.742,107.469 863.503,110.229C892.23,111.434 915.355,99.969 911.886,136.523C909.339,163.364 912.29,170.152 908.889,199.557C908.325,204.43 914.31,264.495 914.33,265.51C914.714,284.718 911.22,284.594 913.074,315.522C913.105,316.032 912.453,331.83 913.425,340.508C915.097,355.446 917.054,400.623 915.837,411.55C914.096,427.183 915.151,438.49 913.165,451.459C912.584,455.248 914.654,461.214 911.591,485.51C908.857,507.203 910.325,518.621 910.692,521.476C911.435,527.251 908.4,533.784 911.655,550.471C911.957,552.019 913.547,581.233 914.735,592.476C914.869,593.746 916.589,664.452 915.074,676.47C911.196,707.252 915.306,709.379 911.589,770.502C911.403,773.557 909.198,822.185 908.123,839.489C907.855,843.813 907.396,851.203 911.133,893.558Z"/>
    </g>
</svg>
